<svg width="298" height="124" viewBox="0 0 298 124" fill="none" xmlns="http://www.w3.org/2000/svg">
<rect x="0.5" y="0.5" width="297" height="122.087" fill="white" stroke="#ECECEC"/>
<path d="M255.243 59.2187V55.5131H250.603V49.7523L250.447 49.8L246.088 51.1224L246.002 51.1483V55.5133H239.123V53.0816C239.123 51.9494 239.378 51.0829 239.881 50.505C240.381 49.9341 241.095 49.6439 242.007 49.6439C242.662 49.6439 243.341 49.7969 244.024 50.0988L244.195 50.1746V46.2721L244.114 46.2428C243.477 46.0157 242.611 45.9014 241.537 45.9014C240.183 45.9014 238.954 46.1935 237.881 46.7723C236.808 47.352 235.964 48.1796 235.372 49.2317C234.783 50.2827 234.484 51.4965 234.484 52.8397V55.5131H231.253V59.2187H234.484V74.8297H239.123V59.2187H246.002V69.1392C246.002 73.2249 247.946 75.2954 251.779 75.2954C252.408 75.2954 253.071 75.2223 253.748 75.079C254.437 74.9318 254.906 74.7848 255.183 74.6279L255.244 74.592V70.8522L255.055 70.9759C254.803 71.1422 254.49 71.2782 254.122 71.3793C253.753 71.4822 253.445 71.5338 253.206 71.5338C252.308 71.5338 251.644 71.2939 251.232 70.8204C250.815 70.3426 250.603 69.5071 250.603 68.3384V59.2187H255.243ZM220.894 71.5344C219.21 71.5344 217.883 70.9808 216.947 69.8903C216.006 68.7943 215.529 67.2318 215.529 65.2465C215.529 63.1982 216.006 61.5951 216.948 60.4798C217.884 59.3718 219.198 58.8094 220.856 58.8094C222.464 58.8094 223.745 59.3465 224.662 60.4066C225.584 61.4722 226.051 63.0625 226.051 65.1346C226.051 67.2322 225.612 68.8435 224.744 69.9213C223.883 70.991 222.587 71.5344 220.894 71.5344ZM221.1 55.0478C217.888 55.0478 215.337 55.9811 213.517 57.8219C211.7 59.6628 210.778 62.2105 210.778 65.3947C210.778 68.4191 211.678 70.8518 213.452 72.6241C215.227 74.397 217.642 75.295 220.63 75.295C223.744 75.295 226.244 74.3487 228.063 72.4824C229.881 70.6182 230.802 68.0946 230.802 64.9848C230.802 61.9131 229.938 59.4623 228.232 57.7018C226.526 55.9405 224.126 55.0478 221.1 55.0478ZM203.299 55.0478C201.114 55.0478 199.306 55.602 197.926 56.6947C196.537 57.7939 195.832 59.2356 195.832 60.9802C195.832 61.887 195.984 62.6925 196.283 63.3758C196.585 64.0612 197.051 64.6648 197.67 65.1713C198.284 65.6737 199.232 66.2 200.489 66.7355C201.546 67.1666 202.334 67.5312 202.834 67.8186C203.323 68.1003 203.671 68.3834 203.867 68.6592C204.057 68.9291 204.154 69.2984 204.154 69.7542C204.154 71.0519 203.174 71.6834 201.157 71.6834C200.409 71.6834 199.556 71.5285 198.621 71.2232C197.693 70.9224 196.817 70.482 196.024 69.9174L195.832 69.7805V74.209L195.902 74.2416C196.559 74.5421 197.386 74.7954 198.362 74.9948C199.335 75.1943 200.22 75.2958 200.988 75.2958C203.359 75.2958 205.268 74.739 206.661 73.6397C208.064 72.533 208.774 71.0572 208.774 69.2523C208.774 67.9503 208.392 66.8337 207.638 65.9332C206.889 65.04 205.589 64.22 203.776 63.4952C202.332 62.9204 201.407 62.4433 201.025 62.077C200.657 61.7231 200.471 61.2227 200.471 60.589C200.471 60.0273 200.701 59.5772 201.175 59.2128C201.652 58.8465 202.316 58.6602 203.149 58.6602C203.922 58.6602 204.712 58.7813 205.499 59.0185C206.285 59.2558 206.975 59.5736 207.551 59.9623L207.74 60.0907V55.8898L207.668 55.8588C207.136 55.6327 206.435 55.4393 205.584 55.2824C204.736 55.1264 203.968 55.0478 203.299 55.0478ZM183.739 71.5344C182.056 71.5344 180.728 70.9808 179.793 69.8903C178.852 68.7943 178.376 67.2322 178.376 65.2465C178.376 63.1982 178.852 61.5951 179.794 60.4798C180.729 59.3718 182.044 58.8094 183.702 58.8094C185.31 58.8094 186.59 59.3465 187.508 60.4066C188.43 61.4722 188.897 63.0625 188.897 65.1346C188.897 67.2322 188.457 68.8435 187.59 69.9213C186.728 70.991 185.434 71.5344 183.739 71.5344ZM183.946 55.0478C180.733 55.0478 178.182 55.9811 176.364 57.8219C174.546 59.6628 173.623 62.2105 173.623 65.3947C173.623 68.4203 174.524 70.8518 176.298 72.6241C178.073 74.397 180.488 75.295 183.476 75.295C186.59 75.295 189.091 74.3487 190.909 72.4824C192.727 70.6182 193.648 68.0946 193.648 64.9848C193.648 61.9131 192.784 59.4623 191.078 57.7018C189.371 55.9405 186.971 55.0478 183.946 55.0478ZM166.582 58.8583V55.5131H162V74.8293H166.582V64.9483C166.582 63.2681 166.966 61.8878 167.724 60.8452C168.473 59.8151 169.47 59.2931 170.688 59.2931C171.1 59.2931 171.564 59.3606 172.066 59.4941C172.562 59.6268 172.922 59.7709 173.134 59.9225L173.327 60.0609V55.4801L173.252 55.4485C172.826 55.2687 172.222 55.178 171.458 55.178C170.307 55.178 169.276 55.5449 168.394 56.2673C167.619 56.9022 167.059 57.7727 166.631 58.8583H166.582ZM153.794 55.0478C151.692 55.0478 149.817 55.4947 148.222 56.3759C146.624 57.2591 145.388 58.52 144.547 60.1233C143.71 61.7227 143.285 63.591 143.285 65.6745C143.285 67.4996 143.697 69.1745 144.512 70.6506C145.327 72.1292 146.48 73.2859 147.94 74.0882C149.398 74.8894 151.084 75.2956 152.95 75.2956C155.127 75.2956 156.987 74.8639 158.477 74.0125L158.537 73.9783V69.8155L158.345 69.9549C157.67 70.4427 156.915 70.832 156.103 71.1125C155.293 71.3927 154.555 71.5344 153.907 71.5344C152.109 71.5344 150.666 70.9765 149.618 69.8767C148.568 68.7754 148.036 67.2289 148.036 65.283C148.036 63.3248 148.591 61.7386 149.685 60.5682C150.776 59.4013 152.222 58.8094 153.983 58.8094C155.489 58.8094 156.957 59.3151 158.345 60.3139L158.537 60.4523V56.0661L158.475 56.0314C157.953 55.7414 157.24 55.5019 156.356 55.3203C155.475 55.1391 154.613 55.0478 153.794 55.0478ZM140.129 55.5133H135.547V74.8293H140.129V55.5133ZM137.885 47.2845C137.131 47.2845 136.473 47.5391 135.932 48.0436C135.39 48.5495 135.115 49.1865 135.115 49.9382C135.115 50.6781 135.387 51.3034 135.924 51.7959C136.458 52.2869 137.118 52.5358 137.885 52.5358C138.652 52.5358 139.314 52.2869 139.855 51.7967C140.398 51.3034 140.674 50.6783 140.674 49.9382C140.674 49.2128 140.406 48.5823 139.877 48.064C139.349 47.5467 138.678 47.2845 137.885 47.2845ZM126.452 54.0881V74.8293H131.128V47.8759H124.656L116.43 67.8961L108.446 47.8759H101.711V74.8291H106.105V54.0861H106.256L114.686 74.8293H118.003L126.301 54.0881H126.452Z" fill="#706D6E"/>
<path d="M64.3122 60.2442H42.7565V38.8691H64.3122V60.2442Z" fill="#F1511B"/>
<path d="M88.112 60.2442H66.5568V38.8691H88.112V60.2442Z" fill="#80CC28"/>
<path d="M64.3116 83.8519H42.7565V62.478H64.3116V83.8519Z" fill="#00ADEF"/>
<path d="M88.112 83.8519H66.5568V62.478H88.112V83.8519Z" fill="#FBBC09"/>
</svg>
