<svg width="298" height="122" viewBox="0 0 298 122" fill="none" xmlns="http://www.w3.org/2000/svg">
<rect x="0.5" y="0.5" width="297" height="120.791" fill="white" stroke="#ECECEC"/>
<path fill-rule="evenodd" clip-rule="evenodd" d="M222.19 35.4542H217.37C217.244 35.4542 217.123 35.5039 217.034 35.5924C216.944 35.6809 216.894 35.8009 216.894 35.926V76.3938C216.894 76.519 216.944 76.639 217.034 76.7274C217.123 76.8159 217.244 76.8656 217.37 76.8656H222.19C222.316 76.8656 222.438 76.8159 222.527 76.7274C222.616 76.639 222.666 76.519 222.666 76.3938V35.926C222.666 35.8009 222.616 35.6809 222.527 35.5924C222.438 35.5039 222.316 35.4542 222.19 35.4542ZM198.085 34.9824C185.069 34.9824 185.069 38.6223 185.069 56.1564V76.3915C185.069 76.5166 185.119 76.6366 185.208 76.7251C185.298 76.8136 185.419 76.8633 185.545 76.8633H190.85C190.977 76.8633 191.098 76.8136 191.187 76.7251C191.276 76.6366 191.327 76.5166 191.327 76.3915V61.3343H204.826V76.3915C204.826 76.5166 204.876 76.6366 204.965 76.7251C205.055 76.8136 205.176 76.8633 205.302 76.8633H210.605C210.732 76.8633 210.853 76.8136 210.942 76.7251C211.031 76.6366 211.082 76.5166 211.082 76.3915V56.1564C211.082 38.7332 211.082 34.9824 198.063 34.9824H198.085ZM191.315 56.1564C191.315 40.158 191.315 40.158 198.063 40.158C204.812 40.158 204.814 40.158 204.814 56.1564H191.315ZM142.623 46.2747C132.014 46.2747 132.014 48.9451 132.014 61.8037C132.014 74.6624 132.014 77.3327 142.623 77.3327C150.881 77.3327 152.708 75.6649 153.112 68.8924C153.116 68.8281 153.107 68.7637 153.085 68.7031C153.062 68.6426 153.028 68.5872 152.983 68.5403C152.939 68.4935 152.885 68.4561 152.825 68.4307C152.765 68.4052 152.701 68.3922 152.636 68.3923H147.805C147.684 68.3919 147.568 68.4368 147.48 68.5177C147.391 68.5987 147.337 68.7098 147.328 68.8287C147.033 72.6266 146.033 72.6266 142.632 72.6266C138.108 72.6266 137.829 72.6266 137.81 63.6862H152.777C152.903 63.6862 153.024 63.6365 153.113 63.548C153.203 63.4595 153.253 63.3395 153.253 63.2144V61.799C153.253 49.0205 153.253 46.27 142.647 46.27L142.623 46.2747ZM137.829 58.9753C137.87 50.9785 138.287 50.9761 142.647 50.9761C147.007 50.9761 147.409 50.9761 147.462 58.9753H137.829ZM88.1637 34.9824C75.1478 34.9824 75.1478 38.6223 75.1478 56.1564C75.1478 73.6905 75.1478 77.3327 88.1637 77.3327C101.18 77.3327 101.182 73.582 101.182 56.1564C101.182 38.7308 101.182 34.9824 88.1637 34.9824ZM88.1637 72.1572C81.4153 72.1572 81.4153 72.1572 81.4153 56.1564C81.4153 40.1556 81.4153 40.158 88.1637 40.158C94.9122 40.158 94.9122 40.158 94.9122 56.1564C94.9122 72.1548 94.9122 72.1572 88.1637 72.1572ZM168.676 46.2747C165.423 46.2747 163.737 46.9329 162.866 49.0347L162.109 47.19C162.055 47.0576 161.962 46.9445 161.842 46.8653C161.722 46.7862 161.581 46.7448 161.437 46.7465H158.554C158.427 46.7465 158.306 46.7962 158.217 46.8847C158.127 46.9732 158.077 47.0932 158.077 47.2183V76.3938C158.077 76.519 158.127 76.639 158.217 76.7274C158.306 76.8159 158.427 76.8656 158.554 76.8656H163.373C163.499 76.8656 163.621 76.8159 163.71 76.7274C163.799 76.639 163.849 76.519 163.849 76.3938V61.8037C163.849 50.9808 163.849 50.9808 168.669 50.9808C173.489 50.9808 173.491 50.9808 173.491 61.8037V76.3915C173.491 76.5166 173.541 76.6366 173.631 76.7251C173.72 76.8136 173.841 76.8633 173.967 76.8633H178.789C178.916 76.8633 179.037 76.8136 179.126 76.7251C179.215 76.6366 179.266 76.5166 179.266 76.3915V61.8037C179.266 48.9451 179.266 46.2747 168.657 46.2747H168.676ZM116.591 46.2747C113.338 46.2747 111.652 46.9329 110.781 49.0347L110.024 47.19C109.97 47.0576 109.877 46.9445 109.757 46.8653C109.637 46.7862 109.496 46.7448 109.352 46.7465H106.485C106.359 46.7465 106.238 46.7962 106.148 46.8847C106.059 46.9732 106.009 47.0932 106.009 47.2183V87.2167C106.009 87.3419 106.059 87.4619 106.148 87.5503C106.238 87.6388 106.359 87.6885 106.485 87.6885H111.307C111.433 87.6885 111.555 87.6388 111.644 87.5503C111.733 87.4619 111.783 87.3419 111.783 87.2167V76.0659C113.167 77.0863 114.893 77.5407 116.605 77.3351C127.211 77.3351 127.211 74.6671 127.211 61.8061C127.211 48.9451 127.211 46.2771 116.605 46.2771L116.591 46.2747ZM116.605 72.629C111.783 72.629 111.783 72.629 111.783 61.8061C111.783 50.9832 111.783 50.9832 116.605 50.9832C121.427 50.9832 121.427 50.9832 121.427 61.8061C121.427 72.629 121.427 72.629 116.605 72.629Z" fill="#A2A6B8"/>
</svg>
