<svg width="65" height="60" viewBox="0 0 65 60" fill="none" xmlns="http://www.w3.org/2000/svg">
<path d="M32.4981 36.0111C35.699 36.0111 38.2938 33.319 38.2938 29.9982C38.2938 26.6774 35.699 23.9854 32.4981 23.9854C29.2973 23.9854 26.7025 26.6774 26.7025 29.9982C26.7025 33.319 29.2973 36.0111 32.4981 36.0111Z" fill="#00094A"/>
<path d="M16.2732 41.9564L14.9907 41.6162C5.46446 39.1201 0 34.8757 0 29.988C0 25.0968 5.4677 20.8558 14.9907 18.3598L16.2732 18.0229L16.6336 19.34C17.5965 22.7884 18.8301 26.1491 20.3221 29.3884L20.598 29.988L20.3221 30.5876C18.8285 33.8315 17.5915 37.1933 16.6336 40.6427L16.2732 41.9564ZM14.3998 21.4251C7.16256 23.5406 2.71762 26.7676 2.71762 29.988C2.71762 33.2016 7.15932 36.432 14.3998 38.5441C15.2862 35.6202 16.3577 32.7603 17.598 29.988C16.3487 27.211 15.2802 24.3503 14.3998 21.4251ZM48.7256 41.9564L48.3684 40.6359C47.403 37.1869 46.1684 33.8252 44.6767 30.5842L44.4007 29.988L44.6767 29.385C46.1703 26.1478 47.4008 22.7827 48.3684 19.3333L48.7256 18.0195L50.0081 18.3564C59.5376 20.8525 64.9988 25.0935 64.9988 29.988C64.9988 34.8791 59.5343 39.1201 50.0081 41.6162L48.7256 41.9564ZM47.3943 29.988C48.6931 32.9051 49.7743 35.7751 50.599 38.5441C57.8395 36.432 62.2844 33.2016 62.2844 29.988C62.2844 26.7676 57.8427 23.5439 50.599 21.4251C49.7135 24.3494 48.643 27.2099 47.3943 29.988Z" fill="#00094A"/>
<path d="M14.3807 21.4109L14.0235 20.0972C11.3416 10.3014 12.1533 3.28477 16.2541 0.83921C20.264 -1.5693 26.7155 1.27712 33.4722 8.46896L34.3943 9.45257L33.4722 10.4328C31.0723 13.0222 28.8789 15.8092 26.9135 18.7666L26.5466 19.3123L25.9102 19.3662C22.4542 19.6478 19.0261 20.2212 15.6599 21.0808L14.3807 21.4109ZM19.5172 2.78623C18.7899 2.78623 18.147 2.95129 17.6048 3.27467C14.9164 4.88146 14.4424 10.4766 16.2931 18.0289C19.186 17.3653 22.1049 16.8903 25.0466 16.6242C26.7496 14.1182 28.6075 11.7294 30.6084 9.47279C26.3778 5.20484 22.3842 2.78623 19.5172 2.78623ZM45.4823 59.9976C41.625 59.9976 36.6703 56.9794 31.5273 51.5021L30.6084 50.5219L31.5273 49.545C33.9275 46.9515 36.1219 44.1611 38.0892 41.2011L38.4529 40.6621L39.0827 40.5981C42.54 40.3215 45.9694 39.7503 49.3363 38.8903L50.6188 38.5534L50.9792 39.8705C53.6481 49.6595 52.8397 56.6863 48.7454 59.1318C47.7513 59.7165 46.6249 60.0153 45.4823 59.9976ZM34.3943 50.4983C38.6217 54.7662 42.6186 57.1882 45.4823 57.1882C46.2128 57.1882 46.8557 57.0198 47.3947 56.6998C50.0863 55.0896 50.5636 49.4843 48.7064 41.9321C45.8167 42.599 42.8946 43.0774 39.9464 43.3435C38.2506 45.8535 36.3958 48.2437 34.3943 50.4983Z" fill="#00094A"/>
<path d="M50.6196 21.4125L49.3371 21.079C45.9703 20.2168 42.5409 19.6433 39.0835 19.3644L38.4536 19.3072L38.0899 18.7615C36.1254 15.8025 33.9308 13.0153 31.5281 10.4277L30.6092 9.44745L31.5281 8.47057C38.2815 1.2821 44.7298 -1.56432 48.7461 0.840818C52.8437 3.28975 53.6586 10.3064 50.98 20.0988L50.6196 21.4125ZM39.9471 16.6258C43.0447 16.9121 45.9798 17.3938 48.7072 18.0305C50.5611 10.4782 50.0871 4.88307 47.3954 3.27291C44.72 1.66611 39.6842 4.12515 34.395 9.47439C36.3951 11.7313 38.2523 14.1162 39.9471 16.6258ZM19.5179 59.9992C18.3755 60.0161 17.2492 59.7173 16.2548 59.1335C12.1541 56.6879 11.3423 49.6645 14.021 39.8721L14.3717 38.555L15.6542 38.8919C18.7841 39.7104 22.2323 40.2865 25.9077 40.5997L26.5376 40.6637L26.9045 41.2027C28.8656 44.1603 31.0605 46.9528 33.4632 49.5466L34.3853 50.5235L33.4632 51.5037C28.3234 56.9843 23.3687 59.9992 19.5179 59.9992ZM16.2938 41.937C14.4431 49.4893 14.9171 55.0946 17.6055 56.7047C20.2842 58.288 25.3038 55.8458 30.6092 50.4999C28.609 48.2426 26.7512 45.8538 25.0473 43.3485C22.1027 43.0783 19.1785 42.6068 16.2938 41.937Z" fill="#00094A"/>
<path d="M32.4991 43.7035C30.2685 43.7035 27.9795 43.6058 25.6807 43.4071L25.0444 43.3498L24.6775 42.8041C23.3812 40.8702 22.1615 38.8823 21.0215 36.8452C19.8899 34.8026 18.8382 32.7135 17.8688 30.583L17.5961 29.9868L17.8688 29.3838C18.8396 27.2549 19.8883 25.1664 21.0215 23.1251C22.1482 21.1174 23.3787 19.1098 24.6775 17.1628L25.0444 16.6238L25.6807 16.5632C30.2162 16.169 34.7755 16.169 39.311 16.5632L39.9409 16.6272L40.3078 17.1661C42.9046 21.0358 45.1854 25.1237 47.1262 29.3872L47.3957 29.9902L47.1262 30.5864C45.1907 34.8529 42.9097 38.9412 40.3078 42.8075L39.9409 43.3532L39.311 43.4105C37.0188 43.6025 34.7265 43.7035 32.4991 43.7035ZM26.5444 40.6584C30.5543 40.9716 34.444 40.9716 38.4506 40.6584C40.6873 37.2602 42.6756 33.693 44.3989 29.9868C42.6817 26.2772 40.6932 22.7096 38.4506 19.3153C34.4877 18.9986 30.5073 18.9986 26.5444 19.3153C24.3 22.7084 22.3113 26.2762 20.5962 29.9868C22.3231 33.691 24.3112 37.2579 26.5444 40.6584Z" fill="#00094A"/>
</svg>
