<svg width="298" height="124" viewBox="0 0 298 124" fill="none" xmlns="http://www.w3.org/2000/svg">
<rect x="0.5" y="0.586914" width="297" height="122.087" fill="white" stroke="#ECECEC"/>
<path d="M112.517 64.1267C112.517 67.1937 109.878 69.796 106.39 69.796C102.901 69.796 100.262 67.2866 100.262 64.1267V53.0669H98.3765V64.2196C98.3765 68.216 101.487 71.6548 106.39 71.6548C111.292 71.6548 114.403 68.1231 114.403 64.2196V53.0669H112.517V64.1267ZM132.597 53.0669H126.658V71.6548H132.597C138.065 71.6548 141.741 68.1231 141.741 62.3608C141.741 56.6915 138.065 53.0669 132.597 53.0669ZM132.408 69.796H128.543V54.9257H132.408C136.839 54.9257 139.856 57.9927 139.856 62.3608C139.856 67.0078 136.933 69.796 132.408 69.796ZM185.106 69.796C180.769 69.796 177.658 66.2643 177.658 61.9891C177.658 57.7139 180.769 54.461 185.106 54.461C188.5 54.461 190.668 56.4127 190.668 56.4127L191.611 55.1116C191.611 55.1116 189.442 52.7881 185.012 52.7881C179.827 52.7881 175.773 56.7845 175.773 61.9891C175.773 67.1937 179.638 71.6548 185.106 71.6548C189.631 71.6548 192.082 68.5878 192.082 68.5878L191.045 67.3795C190.951 67.3795 188.782 69.796 185.106 69.796ZM203.96 71.6548H205.845V53.0669H203.96V71.6548ZM216.215 54.9257H222.814V71.6548H224.7V54.9257H231.299V53.0669H216.215V54.9257ZM253.17 53.0669L247.325 61.4314L241.386 53.0669H239.312L246.382 63.3832V71.6548H248.267V63.3832L255.244 53.0669H253.17ZM157.673 53.0669L150.226 71.6548H152.205L154.185 66.3572L162.481 64.6843L165.12 71.6548H167.1L159.653 53.0669H157.673ZM155.033 64.3126L158.71 55.5763H158.804L161.915 63.0114L155.033 64.3126Z" fill="#02B3E4"/>
<path d="M55.2946 42.8433L42.7565 49.9998V66.3575C42.7565 73.8857 48.8841 80.0199 56.5201 80.0199C59.0654 80.0199 61.4222 79.3693 63.4961 78.254L73.6774 72.4916C77.731 70.354 80.4649 66.2645 80.4649 61.4316V44.3303L78.0138 42.9362L67.267 48.6056V66.4504C67.267 67.1939 67.1727 67.9375 67.0784 68.681C66.8899 69.4245 66.7013 70.0751 66.4185 70.7257L66.1357 71.2834C65.7586 71.2834 63.4019 70.4469 62.1763 69.6104C61.6107 69.2387 61.1394 68.8669 60.668 68.4022C60.1966 67.9375 59.8196 67.4728 59.4425 66.9151C59.0654 66.3575 57.7456 63.941 57.7456 61.5245V44.2374L55.2946 42.8433ZM61.4222 76.4881C60.7623 76.7669 59.8196 77.1387 59.0654 77.3246C58.3112 77.5105 57.6513 77.5105 56.8972 77.5105C56.143 77.5105 55.3888 77.4175 54.6347 77.2316C53.8805 77.0457 53.2206 76.8599 52.5607 76.581C51.9008 76.3022 51.2409 75.9305 50.6753 75.5587C49.0727 74.4434 48.3185 73.514 47.6586 72.4916C47.2815 71.934 46.9044 71.2834 46.6216 70.6328C46.3388 69.9822 46.1503 69.2387 45.9617 68.4951C45.5847 67.8445 45.5847 67.101 45.5847 66.3575V51.3939L55.0117 45.7244V61.4316C55.0117 67.3798 59.4425 72.3987 65.0987 73.6069C64.9102 73.8857 64.7216 74.1646 64.4388 74.3504C63.4019 75.3728 62.5534 76.0234 61.4222 76.4881ZM77.4482 63.4763C77.3539 64.1269 77.0711 64.7775 76.8826 65.3351C76.5998 65.8928 76.317 66.4504 75.9399 67.0081C75.5628 67.5657 74.4315 68.9598 72.9232 69.7963C71.4149 70.6328 70.0008 70.9116 69.1524 71.0975C69.718 69.6104 70.0951 68.1234 70.0951 66.4504V49.9998L77.6368 45.7244V61.4316C77.6368 62.1751 77.6368 62.8257 77.4482 63.4763Z" fill="#02B3E4"/>
</svg>
