<svg width="298" height="124" viewBox="0 0 298 124" fill="none" xmlns="http://www.w3.org/2000/svg">
<rect x="0.5" y="0.586914" width="297" height="122.087" fill="white" stroke="#ECECEC"/>
<path d="M199.56 62.9929V74.4755H194.41V57.6781H198.015L199.095 59.0068C202.8 56.2018 207.119 56.94 209.129 59.5318L210.076 58.81C212.136 57.2517 214.428 56.858 216.887 57.5141C218.432 57.9242 219.611 58.8592 220.143 60.3519C220.541 61.5002 220.89 62.7141 220.924 63.9115C221.023 67.2907 220.973 70.6699 220.973 74.049C220.957 74.213 220.94 74.3607 220.907 74.5083H215.757V71.5721V66.1096C215.757 65.7816 215.757 65.4371 215.724 65.109C215.508 62.55 214.046 61.5822 211.554 62.3696C211.106 62.5336 210.69 62.7305 210.275 62.9437V74.4755H205.026V73.278V65.9292V65.6011C204.959 62.4024 202.966 61.2541 200.059 62.7141C199.909 62.7633 199.793 62.8453 199.56 62.9929Z" fill="#EA5252"/>
<path d="M148.743 51.9854H154.159C154.192 52.2479 154.225 52.4612 154.225 52.6744C154.209 57.0873 154.209 61.5166 154.159 65.9294C154.142 66.7497 154.043 67.5535 153.86 68.3573C153.079 71.868 150.92 74.0006 147.298 74.6732C144.856 75.1489 142.331 75.1161 139.922 74.5583C136.583 73.7709 134.523 71.2938 134.091 67.6027C133.942 66.1591 133.859 64.7155 133.859 63.2719C133.826 59.8925 133.842 56.5131 133.842 53.1338V51.9854H139.291V53.2486C139.291 56.8904 139.258 60.5323 139.308 64.1741C139.324 65.2076 139.474 66.2411 139.74 67.2418C140.055 68.4722 140.936 69.3744 142.231 69.5549C143.444 69.7353 144.69 69.7353 145.903 69.5549C147.398 69.3252 148.179 68.1933 148.478 66.7825C148.644 65.9458 148.727 65.0928 148.727 64.2398C148.76 60.2042 148.743 56.1522 148.743 51.9854ZM173.562 74.5091H170.356L169.409 73.3444C167.615 74.6239 165.605 75.0341 163.429 74.8864C159.957 74.6404 157.531 72.7374 156.601 69.4236C156.003 67.3402 156.003 65.142 156.618 63.0586C157.614 59.6792 160.488 57.399 164.06 57.2677C165.472 57.2185 166.884 57.399 168.379 57.4974V50.6074H173.562V74.5091ZM168.362 69.6533V62.222C168.047 62.0743 167.764 61.9103 167.449 61.8119C164.807 60.8932 162.415 61.9267 161.734 64.3218C161.568 64.8467 161.485 65.4045 161.485 65.9622C161.518 67.6027 161.801 69.2104 163.462 70.047C165.123 70.8673 166.801 70.654 168.362 69.6533Z" fill="#EA5252"/>
<path d="M192.151 66.8644H181.436C181.137 68.3736 182.101 69.8828 183.712 70.3749C185.523 70.9327 187.35 70.7522 189.144 70.2109C189.892 69.9812 190.59 69.6367 191.387 69.3086L190.706 73.2621C189.593 74.2135 188.264 74.6072 186.868 74.7713C184.991 74.9845 183.114 74.9353 181.287 74.3612C178.795 73.5573 177.1 71.9333 176.336 69.4563C175.655 67.2745 175.622 64.9451 176.27 62.7633C177.183 59.5809 179.792 57.4812 183.147 57.2679C184.078 57.1859 185.025 57.2023 185.955 57.3335C188.53 57.7436 190.324 59.2036 191.287 61.5986C191.968 63.2391 192.218 64.9943 192.151 66.8644ZM181.303 64.3217H187.849C187.699 62.1892 186.171 61.1721 184.692 61.1721C182.798 61.1885 181.569 62.2876 181.303 64.3217Z" fill="#EA5252"/>
<path d="M226.904 57.678C227.552 59.4989 228.183 61.3033 228.831 63.1077C229.462 64.9286 230.094 66.7494 230.824 68.8327L234.546 57.6616H239.695L230.708 80.1514H225.492L227.967 73.9179L221.14 57.678H226.904Z" fill="#EA5252"/>
<path d="M98.6409 61.3203L97.8934 62.8459C95.5344 68.0462 92.9595 73.148 89.6039 77.8233C87.8263 80.3004 85.8495 82.5806 83.341 84.3851C81.0818 85.9928 78.5899 86.977 75.7658 86.9606C72.6926 86.9442 70.2174 85.6975 68.39 83.2532C66.7288 81.0222 66.0643 78.4467 65.8649 75.7235C65.5991 72.0817 66.2304 68.5383 67.061 65.0277C67.2604 64.2075 67.4265 63.3873 67.6425 62.4194C66.8949 62.8459 66.2636 63.2232 65.6324 63.5513C64.5692 64.1255 63.4396 64.47 62.2102 64.4372C59.8015 64.3223 58.2399 62.5834 58.3064 60.1392C60.0839 58.6135 61.878 57.2356 63.4728 55.6443C67.7089 51.4283 70.9483 46.507 73.4235 41.1099C73.7724 40.3061 74.1877 39.5186 74.6362 38.764C75.8157 36.8939 77.7095 36.0573 79.6697 36.4674C81.5469 36.8611 82.7264 38.2555 83.1085 40.4865C83.6068 43.3573 83.0088 46.1297 82.3443 48.8856C81.0153 54.2991 79.6199 59.7126 78.3241 65.1426C77.6929 67.8001 77.344 70.5069 77.5267 73.2464C77.5766 74.0502 77.7427 74.8541 78.0085 75.6087C78.5733 77.0851 79.8857 77.4624 81.115 76.4453C81.8792 75.7891 82.5603 75.0673 83.1749 74.2799C86.6469 69.9327 89.5042 65.1918 92.0625 60.2868C94.2387 56.1036 96.3817 51.9041 98.5579 47.7209C98.9233 46.9991 99.3553 46.3101 99.7706 45.6211C101.399 42.98 105.369 43.2097 106.964 45.818C107.828 47.2288 108.243 48.8036 108.359 50.4277C108.492 52.1173 108.525 53.807 108.592 55.4967C108.741 59.1713 108.874 62.8459 109.057 66.5205C109.107 67.2095 109.256 67.8985 109.522 68.5547C110.004 69.785 110.917 70.2444 112.197 69.8671C112.911 69.6702 113.592 69.3585 114.19 68.932C115.884 67.6689 117.496 66.3237 119.257 64.9129C119.988 65.1262 120.42 65.7659 120.669 66.5698C121.134 68.0954 120.835 69.5718 120.27 70.9826C118.692 74.9525 115.569 77.1835 111.499 78.0694C109.937 78.381 108.326 78.4467 106.731 78.2334C103.625 77.8561 101.548 76.0024 100.335 73.1808C99.2057 70.5561 98.94 67.7837 98.8237 64.9785C98.7738 63.781 98.8237 62.5834 98.8237 61.3695L98.6409 61.3203Z" fill="#EA5252"/>
</svg>
